<svg t="1777816313926" class="icon" viewBox="0 0 1024 1024" version="1.1" xmlns="http://www.w3.org/2000/svg" p-id="18175" width="200" height="200">
<path d="M99.1744 110.0288m66.304 0l240.6912 0q66.304 0 66.304 66.304l0 240.6912q0 66.304-66.304 66.304l-240.6912 0q-66.304 0-66.304-66.304l0-240.6912q0-66.304 66.304-66.304Z" fill="#59ADF8" p-id="18176"></path>
<path d="M551.6288 110.0288m66.304 0l240.6912 0q66.304 0 66.304 66.304l0 240.6912q0 66.304-66.304 66.304l-240.6912 0q-66.304 0-66.304-66.304l0-240.6912q0-66.304 66.304-66.304Z" fill="#59ADF8" p-id="18177"></path>
<path d="M99.1744 556.3904m66.304 0l240.6912 0q66.304 0 66.304 66.304l0 240.6912q0 66.304-66.304 66.304l-240.6912 0q-66.304 0-66.304-66.304l0-240.6912q0-66.304 66.304-66.304Z" fill="#59ADF8" p-id="18178"></path>
<path d="M551.6288 556.3904m66.304 0l240.6912 0q66.304 0 66.304 66.304l0 240.6912q0 66.304-66.304 66.304l-240.6912 0q-66.304 0-66.304-66.304l0-240.6912q0-66.304 66.304-66.304Z" fill="#59ADF8" p-id="18179"></path>
</svg>